HIERARCHY
ROOT Hips
{
	OFFSET 0.000000 0.000000 0.000000
	CHANNELS 6 Xposition Yposition Zposition Xrotation Yrotation Zrotation
	JOINT LeftUpLeg_virtual
	{
		OFFSET 0.000000 0.000000 0.000000
		CHANNELS 3 Xrotation Yrotation Zrotation
		JOINT LeftUpLeg
		{
			OFFSET 13.026900 -6.336304 -1.092800
			CHANNELS 3 Xrotation Yrotation Zrotation
			JOINT LeftLeg
			{
				OFFSET 0.524474 -46.096886 9.782700
				CHANNELS 3 Xrotation Yrotation Zrotation
				JOINT LeftFoot
				{
					OFFSET -0.524474 -53.427422 -12.948200
					CHANNELS 3 Xrotation Yrotation Zrotation
					JOINT LeftToeBase
					{
						OFFSET 0.192200 -14.009700 16.364100
						CHANNELS 3 Xrotation Yrotation Zrotation
						JOINT LeftToe_End
						{
							OFFSET -1.784700 -0.561700 9.474800
							CHANNELS 3 Xrotation Yrotation Zrotation
							End Site
							{
								OFFSET 0 0 0
							}
						}
					}
				}
			}
		}
	}
	JOINT RightUpLeg_virtual
	{
		OFFSET 0.000000 0.000000 0.000000
		CHANNELS 3 Xrotation Yrotation Zrotation
		JOINT RightUpLeg
		{
			OFFSET -12.883000 -6.336304 -1.092800
			CHANNELS 3 Xrotation Yrotation Zrotation
			JOINT RightLeg
			{
				OFFSET -0.524587 -46.096825 9.782800
				CHANNELS 3 Xrotation Yrotation Zrotation
				JOINT RightFoot
				{
					OFFSET 0.524587 -53.427383 -12.948300
					CHANNELS 3 Xrotation Yrotation Zrotation
					JOINT RightToeBase
					{
						OFFSET -0.192200 -14.009700 16.364100
						CHANNELS 3 Xrotation Yrotation Zrotation
						JOINT RightToe_End
						{
							OFFSET 1.784700 -0.561700 9.474800
							CHANNELS 3 Xrotation Yrotation Zrotation
							End Site
							{
								OFFSET 0 0 0
							}
						}
					}
				}
			}
		}
	}
	JOINT Spine_virtual
	{
		OFFSET 0.000000 0.000000 0.000000
		CHANNELS 3 Xrotation Yrotation Zrotation
		JOINT Spine
		{
			OFFSET 0.072000 7.257294 -0.789700
			CHANNELS 3 Xrotation Yrotation Zrotation
			JOINT Spine1
			{
				OFFSET 0.000000 12.508769 -0.658067
				CHANNELS 3 Xrotation Yrotation Zrotation
				JOINT Spine1_split
				{
					OFFSET 0.000000 12.508769 -0.658067
					CHANNELS 3 Xrotation Yrotation Zrotation
					JOINT Spine2
					{
						OFFSET 0.000000 12.508769 -0.658067
						CHANNELS 3 Xrotation Yrotation Zrotation
						JOINT Neck_virtual
						{
							OFFSET 0.000000 0.000000 0.000000
							CHANNELS 3 Xrotation Yrotation Zrotation
							JOINT Neck
							{
								OFFSET 0.000000 14.033295 7.520400
								CHANNELS 3 Xrotation Yrotation Zrotation
								JOINT Head
								{
									OFFSET 0.000000 8.198502 5.703100
									CHANNELS 3 Xrotation Yrotation Zrotation
									JOINT HeadTop_End
									{
										OFFSET 0.000000 17.760803 13.332701
										CHANNELS 3 Xrotation Yrotation Zrotation
										End Site
										{
											OFFSET 0 0 0
										}
									}
								}
							}
						}
						JOINT LeftShoulder_virtual
						{
							OFFSET 0.000000 0.000000 0.000000
							CHANNELS 3 Xrotation Yrotation Zrotation
							JOINT LeftShoulder
							{
								OFFSET 6.292450 5.785301 -0.669000
								CHANNELS 3 Xrotation Yrotation Zrotation
								JOINT LeftShoulder_split
								{
									OFFSET 6.292450 5.785301 -0.669000
									CHANNELS 3 Xrotation Yrotation Zrotation
									JOINT LeftArm
									{
										OFFSET 13.907140 -6.093903 1.965100
										CHANNELS 3 Xrotation Yrotation Zrotation
										JOINT LeftForeArm
										{
											OFFSET 34.140198 0.000000 0.000000
											CHANNELS 3 Xrotation Yrotation Zrotation
											JOINT LeftHand
											{
												OFFSET 40.960209 0.000000 0.000000
												CHANNELS 3 Xrotation Yrotation Zrotation
												End Site
												{
													OFFSET 0 0 0
												}
											}
										}
									}
								}
							}
						}
						JOINT RightShoulder_virtual
						{
							OFFSET 0.000000 0.000000 0.000000
							CHANNELS 3 Xrotation Yrotation Zrotation
							JOINT RightShoulder
							{
								OFFSET -6.292450 5.785301 -0.669000
								CHANNELS 3 Xrotation Yrotation Zrotation
								JOINT RightShoulder_split
								{
									OFFSET -6.292450 5.785301 -0.669000
									CHANNELS 3 Xrotation Yrotation Zrotation
									JOINT RightArm
									{
										OFFSET -13.907140 -6.093903 1.965100
										CHANNELS 3 Xrotation Yrotation Zrotation
										JOINT RightForeArm
										{
											OFFSET -34.140198 0.000000 0.000000
											CHANNELS 3 Xrotation Yrotation Zrotation
											JOINT RightHand
											{
												OFFSET -40.960209 0.000000 0.000000
												CHANNELS 3 Xrotation Yrotation Zrotation
												End Site
												{
													OFFSET 0 0 0
												}
											}
										}
									}
								}
							}
						}
					}
				}
			}
		}
	}
}
MOTION
Frames: 8
Frame Time: 0.03333333
-28.058050 158.895889 38.243500 0.000000 0.000000 0.000000 6.802126 -18.529560 2.039654 -20.285110 9.311698 4.771449 25.168581 12.421341 5.006959 16.871785 -0.566891 -0.104875 1.839714 0.516079 0.290516 0.000000 0.000000 0.000000 5.817355 -17.449947 1.426359 -3.524050 -5.392702 -4.099468 11.350523 -15.419996 1.298800 26.025032 0.072322 -2.429658 7.401468 -0.920116 -0.356559 0.000000 0.000000 0.000000 5.906290 -15.760627 1.525435 -0.595135 3.712443 3.043350 -5.209288 1.179065 -1.617924 2.227799 -2.804134 0.467580 0.000000 0.000000 0.000000 -0.719269 1.277130 -2.385590 -27.756960 2.407995 -0.555707 -6.924506 3.765012 4.311281 0.000000 0.000000 0.000000 -3.719063 1.244897 -1.756933 4.474030 -3.346820 22.195460 4.496588 6.612093 0.751403 -56.276633 -24.669127 24.022395 -23.901795 -46.870698 9.480857 0.000000 0.000000 0.000000 -3.582085 0.725662 -1.349003 -4.548431 -11.272600 -26.386527 -0.584217 -2.235072 -2.138749 -84.578205 35.012970 33.383762 -31.602039 43.680487 -3.938341 0.000000 0.000000 0.000000 
-28.260288 155.423050 39.615829 0.000000 0.000000 0.000000 5.782789 -16.548522 1.201750 -23.484005 9.798898 5.242860 27.718369 12.703424 4.422566 24.047687 -1.282714 1.233381 3.169450 0.655790 0.226519 0.000000 0.000000 0.000000 5.374272 -14.446526 0.694720 -4.889889 -6.615310 -5.842632 14.145650 -13.071768 1.699476 29.882706 2.298879 -1.431002 5.944910 -0.225068 -0.349339 0.000000 0.000000 0.000000 4.470250 -14.104575 0.664253 -0.153983 3.994870 3.318444 -5.506002 1.084573 -1.271669 2.640324 -3.072563 0.807813 0.000000 0.000000 0.000000 -1.538969 1.238997 -1.886678 -27.244054 1.631535 -1.442786 -7.522601 2.238720 4.399765 0.000000 0.000000 0.000000 -4.295306 1.106706 -1.355939 5.307695 -2.328779 24.485436 3.627469 5.062431 1.805983 -52.043323 -18.843882 19.949912 -20.370380 -51.098800 11.679851 0.000000 0.000000 0.000000 -4.292000 0.705428 -0.847840 -2.331448 -9.460258 -24.075510 -1.476079 -2.983319 -2.114138 -79.717726 39.465796 31.363822 -30.701878 39.408870 0.024851 0.000000 0.000000 0.000000 
-28.431561 151.617020 41.339394 0.000000 0.000000 0.000000 4.587502 -14.992281 0.539439 -25.920827 10.004417 5.421775 29.739579 13.013894 4.196080 29.858097 -1.800440 3.704012 4.353655 0.709886 0.066228 0.000000 0.000000 0.000000 4.760140 -11.432857 0.128942 -5.771369 -7.244054 -6.640637 16.231106 -11.433085 1.746359 32.921215 3.490359 -0.609065 4.589353 0.350981 0.051487 0.000000 0.000000 0.000000 2.702247 -12.722598 0.032227 0.324116 4.148674 3.437325 -5.834213 0.960636 -0.847379 2.557240 -3.052107 0.763021 0.000000 0.000000 0.000000 -2.627841 1.181196 -1.316037 -26.505082 1.291774 -2.547576 -7.459977 0.768905 4.346317 0.000000 0.000000 0.000000 -4.887016 0.959540 -0.881673 5.638074 -0.201581 27.333498 2.557092 3.185671 2.535446 -49.325171 -16.134514 14.807910 -19.253325 -51.310266 12.120876 0.000000 0.000000 0.000000 -5.277627 0.680559 -0.271634 -0.395199 -6.958598 -23.691208 -1.843597 -3.281095 -1.764463 -75.485570 41.305535 28.407402 -29.445150 33.735220 2.607105 0.000000 0.000000 0.000000 
-28.683929 148.458862 43.388237 0.000000 0.000000 0.000000 3.356177 -13.898766 0.142125 -26.777968 9.892405 5.016816 31.002352 13.593186 4.457185 32.924025 -1.659052 6.741571 5.540004 0.723551 -0.215677 0.000000 0.000000 0.000000 4.051436 -9.117661 -0.125703 -6.151919 -7.373710 -6.481823 17.297440 -11.063168 1.607327 34.787608 2.867230 -0.828451 4.460385 0.720376 0.875763 0.000000 0.000000 0.000000 1.095497 -11.673758 -0.262161 0.647208 4.216390 3.418212 -6.253090 0.860538 -0.441480 1.941384 -2.557133 0.433980 0.000000 0.000000 0.000000 -3.843395 1.125592 -0.801722 -25.424671 1.091355 -3.711519 -6.792480 -0.440119 4.173129 0.000000 0.000000 0.000000 -5.510466 0.854341 -0.454214 5.570785 2.270618 30.394991 1.711626 1.543580 2.923587 -48.763910 -16.506455 9.925485 -20.958615 -47.782275 10.481385 0.000000 0.000000 0.000000 -6.400875 0.692924 0.262273 1.125473 -4.430964 -25.279672 -1.823486 -2.858570 -1.128270 -73.675967 40.884553 26.104657 -28.019451 28.080171 3.895671 0.000000 0.000000 0.000000 
-29.024950 146.447113 45.630032 0.000000 0.000000 0.000000 2.292070 -13.044773 -0.027256 -25.805643 9.604825 4.214521 31.252398 14.320521 5.055271 33.592482 -1.040889 9.097388 6.108291 0.728560 -0.492208 0.000000 0.000000 0.000000 3.151774 -7.686639 -0.110549 -6.193109 -7.059922 -5.637391 17.382266 -11.615135 1.333106 35.927867 1.019467 -1.279817 4.169882 0.842380 1.822239 0.000000 0.000000 0.000000 -0.074363 -10.854391 -0.192244 0.677901 4.195810 3.277843 -6.793658 0.797286 -0.165861 1.368019 -1.959373 0.037770 0.000000 0.000000 0.000000 -5.041563 1.055288 -0.448207 -23.984500 0.794758 -4.754664 -5.608687 -1.259574 3.916664 0.000000 0.000000 0.000000 -6.161698 0.835418 -0.222478 5.324352 4.429613 33.187343 1.379602 0.290137 2.770361 -50.376941 -19.472164 5.755818 -23.908322 -41.945404 8.010076 0.000000 0.000000 0.000000 -7.377896 0.759469 0.621672 2.214637 -2.518149 -28.404158 -1.728397 -1.902342 -0.040326 -74.361110 39.170179 24.994637 -26.648550 23.850416 4.255243 0.000000 0.000000 0.000000 
-29.487762 145.602081 48.116516 0.000000 0.000000 0.000000 1.275962 -12.163314 0.023403 -23.824869 9.427708 3.385569 30.554397 15.014552 5.680524 32.891357 -0.432287 10.200333 5.583895 0.759498 -0.584061 0.000000 0.000000 0.000000 2.096443 -6.931801 0.094990 -6.169645 -6.567756 -4.595954 17.314390 -12.486901 1.137155 37.385771 -0.887515 -0.962568 2.120213 0.727527 2.553624 0.000000 0.000000 0.000000 -0.739263 -10.081305 0.162259 0.431315 4.100569 3.060251 -7.432258 0.747569 -0.048369 0.700972 -1.325750 -0.201885 0.000000 0.000000 0.000000 -6.122833 0.973432 -0.308619 -22.186912 0.386138 -5.518845 -4.026470 -1.659131 3.625466 0.000000 0.000000 0.000000 -6.831823 0.889088 -0.222768 5.136677 5.884377 35.279040 1.625460 -0.276789 2.083097 -53.201949 -23.519452 2.490129 -26.626190 -35.768031 5.839235 0.000000 0.000000 0.000000 -8.121241 0.878224 0.744151 2.837064 -1.502586 -32.242232 -1.468202 -0.507334 1.154397 -76.305289 36.947499 24.741691 -25.512700 22.003084 4.071063 0.000000 0.000000 0.000000 
-30.120134 145.661804 50.508366 0.000000 0.000000 0.000000 0.342439 -11.249194 0.211841 -21.648701 9.887469 2.888928 29.404142 15.579189 6.044001 31.855599 0.050649 10.054658 4.517135 0.804549 -0.519608 0.000000 0.000000 0.000000 1.056729 -6.425191 0.434117 -5.922118 -6.215607 -3.784640 16.801068 -12.968648 0.987830 39.043007 -1.662222 0.550417 -1.069800 0.497051 2.863613 0.000000 0.000000 0.000000 -1.004041 -9.325990 0.660314 -0.007423 3.928778 2.862880 -8.109821 0.685528 -0.091686 0.491083 -0.695049 -0.157372 0.000000 0.000000 0.000000 -7.020129 0.885740 -0.361540 -20.302218 -0.102636 -5.980956 -2.311393 -1.579838 3.281665 0.000000 0.000000 0.000000 -7.500837 0.980223 -0.442111 5.210068 6.497969 36.423848 2.789505 -0.184296 1.149575 -56.107856 -27.387206 0.025890 -28.463434 -31.056214 4.258042 0.000000 0.000000 0.000000 -8.580086 1.028005 0.641338 3.104583 -1.272745 -35.859764 -1.124329 0.966599 2.261147 -77.972579 34.783531 24.899579 -24.541174 22.481972 3.625335 0.000000 0.000000 0.000000 
-30.817934 146.006912 52.920395 0.000000 0.000000 0.000000 -0.505564 -10.386568 0.443676 -19.979287 11.255414 2.775119 28.079029 16.148282 5.957988 30.836480 0.453669 9.253149 3.510886 0.848121 -0.335051 0.000000 0.000000 0.000000 0.106495 -5.970141 0.710185 -5.432510 -6.319411 -3.300796 15.664612 -12.991406 0.853966 39.760177 -1.326612 2.305795 -3.527304 0.315287 2.774847 0.000000 0.000000 0.000000 -1.170948 -8.645970 1.138855 -0.512206 3.661638 2.705317 -8.753763 0.595837 -0.225364 0.371936 -0.561886 0.149352 0.000000 0.000000 0.000000 -7.727121 0.777158 -0.513476 -18.449775 -0.507618 -6.174690 -0.665444 -1.069022 2.838599 0.000000 0.000000 0.000000 -8.120170 1.060077 -0.786474 5.586709 6.449484 36.663663 4.080891 0.476453 0.114241 -58.158412 -30.385415 -1.581316 -29.190750 -28.194942 3.329173 0.000000 0.000000 0.000000 -8.805256 1.150722 0.390634 3.111452 -1.613780 -38.637813 -0.651142 2.047976 3.015547 -78.358191 33.190191 24.973036 -23.746129 24.409942 3.032069 0.000000 0.000000 0.000000 
